<?xml version="1.0" encoding="utf-8"?>
<!-- Generator: Adobe Illustrator 16.0.0, SVG Export Plug-In . SVG Version: 6.00 Build 0) bert -->
<!DOCTYPE svg PUBLIC "-//W3C//DTD SVG 1.1//EN" "http://www.w3.org/Graphics/SVG/1.1/DTD/svg11.dtd">
<svg version="1.1" id="Layer_1" xmlns="http://www.w3.org/2000/svg" xmlns:xlink="http://www.w3.org/1999/xlink" x="0px" y="0px"
	 width="595.279px" height="502.475px" viewBox="0 161.049 595.279 502.475" enable-background="new 0 161.049 595.279 502.475"
	 xml:space="preserve">
<g>
	<path fill="#2F663B" d="M526.748,330.493H68.531c-4.518,0-8.185,3.658-8.185,8.175v40.912c0,4.526,3.667,8.193,8.185,8.193h8.726
		l14.3,214.375c0.85,12.891,11.562,22.908,24.48,22.908h363.206c12.917,0,23.631-10.018,24.489-22.908l14.29-214.375h8.735
		c4.508,0,8.175-3.667,8.175-8.193v-40.912C534.933,334.151,531.266,330.493,526.748,330.493z M183.081,567.786
		c0,9.033-7.317,16.359-16.359,16.359c-9.033,0-16.368-7.326-16.368-16.359V445.042c0-9.033,7.335-16.367,16.368-16.367
		c9.042,0,16.359,7.334,16.359,16.367V567.786z M248.545,567.786c0,9.033-7.326,16.359-16.359,16.359
		c-9.043,0-16.377-7.326-16.377-16.359V445.042c0-9.033,7.334-16.367,16.377-16.367c9.033,0,16.359,7.334,16.359,16.367V567.786z
		 M314.008,567.786c0,9.033-7.335,16.359-16.368,16.359s-16.368-7.326-16.368-16.359V445.042c0-9.033,7.335-16.367,16.368-16.367
		s16.368,7.334,16.368,16.367V567.786z M379.463,567.786c0,9.033-7.326,16.359-16.369,16.359c-9.033,0-16.358-7.326-16.358-16.359
		V445.042c0-9.033,7.325-16.367,16.358-16.367c9.043,0,16.369,7.334,16.369,16.367V567.786z M444.926,567.786
		c0,9.033-7.335,16.359-16.368,16.359c-9.042,0-16.358-7.326-16.358-16.359V445.042c0-9.033,7.316-16.367,16.358-16.367
		c9.033,0,16.368,7.334,16.368,16.367V567.786z"/>
	<g>
		<path fill="#16522F" d="M190.497,355.668L190.497,355.668c7.091,4.101,16.169,1.671,20.271-5.42l74.162-128.479
			c4.102-7.091,1.672-16.16-5.42-20.261l0,0c-7.1-4.101-16.178-1.662-20.262,5.429l-74.18,128.47
			C180.967,342.507,183.397,351.585,190.497,355.668z"/>
		<path fill="#16522F" d="M404.846,355.686L404.846,355.686c-7.027,4.065-16.025,1.653-20.1-5.375l-73.529-127.386
			c-4.064-7.027-1.653-16.034,5.375-20.09l0,0c7.027-4.064,16.033-1.644,20.099,5.384l73.53,127.377
			C414.285,342.633,411.883,351.63,404.846,355.686z"/>
	</g>
	<path fill="#134427" d="M516.387,412.306l1.636-24.534H77.257l1.635,24.514L516.387,412.306z"/>
</g>
</svg>
